<?xml version="1.0" standalone="no"?><!DOCTYPE svg PUBLIC "-//W3C//DTD SVG 1.1//EN" "http://www.w3.org/Graphics/SVG/1.1/DTD/svg11.dtd"><svg t="1780368569656" class="icon" viewBox="0 0 1024 1024" version="1.1" xmlns="http://www.w3.org/2000/svg" p-id="5831" xmlns:xlink="http://www.w3.org/1999/xlink" width="64" height="64"><path d="M513 17.1c226 0 409.16 183.18 409.16 409.16C922.13 726.69 513 1005.9 513 1005.9S103.81 736.16 103.81 426.26C103.81 200.28 287 17.1 513 17.1z" fill="#0E72DD" p-id="5832"></path><path d="M512 432m-356.41 0a356.41 356.41 0 1 0 712.82 0 356.41 356.41 0 1 0-712.82 0Z" fill="#FFFFFF" p-id="5833"></path><path d="M571.75 286.74a161.2 161.2 0 0 1 0.81 279.1C675.4 540 742.63 465.24 742.63 426.43c0.05-40.3-66.99-114.57-170.88-139.69zM346.34 426.51a159.36 159.36 0 0 1 79.33-138.91c-100.36 25.93-169.35 99-169.35 138.83s68.8 113.14 169.45 139a159.36 159.36 0 0 1-79.43-138.92zM740.42 197.44L365.18 195l-0.18-14.54a12.93 12.93 0 0 0-19.82-11.72l-50.83 32.88a13.32 13.32 0 0 0-3.15 18.56 13.46 13.46 0 0 0 3.38 3.31L346 256.24a13 13 0 0 0 19.63-11.16l-0.13-14.57 375.26 3.64zM289.27 625.69l375.26-1 0.19-14.58a12.95 12.95 0 0 1 19.89-11.64l50.72 33a13.35 13.35 0 0 1 3 18.64 13.11 13.11 0 0 1-3.33 3.23L683.41 686a13 13 0 0 1-19.59-11.22l0.19-14.58-375.27 2.22z" fill="#0E72DD" p-id="5834"></path><path d="M504.1 547.88a117.26 117.26 0 1 1 82.9-34.35 116.5 116.5 0 0 1-82.9 34.35z m0-200a82.7 82.7 0 1 0 82.7 82.69 82.79 82.79 0 0 0-82.7-82.65z" fill="#0E72DD" p-id="5835"></path><path d="M506.03 432.55m-39.93 0a39.93 39.93 0 1 0 79.86 0 39.93 39.93 0 1 0-79.86 0Z" fill="#0E72DD" p-id="5836"></path></svg>